<?xml version="1.0" encoding="UTF-8"?>
<!-- Do not edit this file with editors other than draw.io -->
<!DOCTYPE svg PUBLIC "-//W3C//DTD SVG 1.1//EN" "http://www.w3.org/Graphics/SVG/1.1/DTD/svg11.dtd">
<svg xmlns="http://www.w3.org/2000/svg" xmlns:xlink="http://www.w3.org/1999/xlink" version="1.1" width="170px" height="220px" viewBox="-0.5 -0.5 170 220" content="&lt;mxfile host=&quot;app.diagrams.net&quot; modified=&quot;2024-07-22T22:32:19.917Z&quot; agent=&quot;Mozilla/5.0 (Macintosh; Intel Mac OS X 10_15_7) AppleWebKit/537.36 (KHTML, like Gecko) Chrome/126.0.0.0 Safari/537.36&quot; etag=&quot;Krcz1te0Ay9G6dukJfXy&quot; version=&quot;24.7.3&quot; type=&quot;device&quot;&gt;&#10;  &lt;diagram name=&quot;Page-1&quot; id=&quot;5EpkYnDnTE04fVikYyS9&quot;&gt;&#10;    &lt;mxGraphModel dx=&quot;1026&quot; dy=&quot;684&quot; grid=&quot;1&quot; gridSize=&quot;10&quot; guides=&quot;1&quot; tooltips=&quot;1&quot; connect=&quot;1&quot; arrows=&quot;1&quot; fold=&quot;1&quot; page=&quot;1&quot; pageScale=&quot;1&quot; pageWidth=&quot;850&quot; pageHeight=&quot;1100&quot; math=&quot;0&quot; shadow=&quot;0&quot;&gt;&#10;      &lt;root&gt;&#10;        &lt;mxCell id=&quot;0&quot; /&gt;&#10;        &lt;mxCell id=&quot;1&quot; parent=&quot;0&quot; /&gt;&#10;        &lt;mxCell id=&quot;_soLM7Lod4DPcoEbEo6t-17&quot; value=&quot;&quot; style=&quot;strokeWidth=10;html=1;shape=mxgraph.flowchart.database;whiteSpace=wrap;fillColor=#e61919;strokeColor=#ffffff;&quot; vertex=&quot;1&quot; parent=&quot;1&quot;&gt;&#10;          &lt;mxGeometry x=&quot;310&quot; y=&quot;830&quot; width=&quot;160&quot; height=&quot;90&quot; as=&quot;geometry&quot; /&gt;&#10;        &lt;/mxCell&gt;&#10;        &lt;mxCell id=&quot;_soLM7Lod4DPcoEbEo6t-20&quot; value=&quot;&quot; style=&quot;strokeWidth=10;html=1;shape=mxgraph.flowchart.database;whiteSpace=wrap;fillColor=#e61919;strokeColor=#ffffff;&quot; vertex=&quot;1&quot; parent=&quot;1&quot;&gt;&#10;          &lt;mxGeometry x=&quot;310&quot; y=&quot;770&quot; width=&quot;160&quot; height=&quot;90&quot; as=&quot;geometry&quot; /&gt;&#10;        &lt;/mxCell&gt;&#10;        &lt;mxCell id=&quot;_soLM7Lod4DPcoEbEo6t-21&quot; value=&quot;&quot; style=&quot;strokeWidth=10;html=1;shape=mxgraph.flowchart.database;whiteSpace=wrap;fillColor=#e61919;strokeColor=#ffffff;&quot; vertex=&quot;1&quot; parent=&quot;1&quot;&gt;&#10;          &lt;mxGeometry x=&quot;310&quot; y=&quot;710&quot; width=&quot;160&quot; height=&quot;90&quot; as=&quot;geometry&quot; /&gt;&#10;        &lt;/mxCell&gt;&#10;      &lt;/root&gt;&#10;    &lt;/mxGraphModel&gt;&#10;  &lt;/diagram&gt;&#10;&lt;/mxfile&gt;&#10;"><defs/><g><g data-cell-id="0"><g data-cell-id="1"><g data-cell-id="_soLM7Lod4DPcoEbEo6t-17"><g><path d="M 5 200 L 5 140 C 5 131.72 40.82 125 85 125 C 129.18 125 165 131.72 165 140 L 165 200 C 165 208.28 129.18 215 85 215 C 40.82 215 5 208.28 5 200 Z" fill="#e61919" stroke="#ffffff" stroke-width="10" stroke-miterlimit="10" pointer-events="all"/><path d="M 5 140 C 5 148.28 40.82 155 85 155 C 129.18 155 165 148.28 165 140" fill="none" stroke="#ffffff" stroke-width="10" stroke-miterlimit="10" pointer-events="all"/></g></g><g data-cell-id="_soLM7Lod4DPcoEbEo6t-20"><g><path d="M 5 140 L 5 80 C 5 71.72 40.82 65 85 65 C 129.18 65 165 71.72 165 80 L 165 140 C 165 148.28 129.18 155 85 155 C 40.82 155 5 148.28 5 140 Z" fill="#e61919" stroke="#ffffff" stroke-width="10" stroke-miterlimit="10" pointer-events="all"/><path d="M 5 80 C 5 88.28 40.82 95 85 95 C 129.18 95 165 88.28 165 80" fill="none" stroke="#ffffff" stroke-width="10" stroke-miterlimit="10" pointer-events="all"/></g></g><g data-cell-id="_soLM7Lod4DPcoEbEo6t-21"><g><path d="M 5 80 L 5 20 C 5 11.72 40.82 5 85 5 C 129.18 5 165 11.72 165 20 L 165 80 C 165 88.28 129.18 95 85 95 C 40.82 95 5 88.28 5 80 Z" fill="#e61919" stroke="#ffffff" stroke-width="10" stroke-miterlimit="10" pointer-events="all"/><path d="M 5 20 C 5 28.28 40.82 35 85 35 C 129.18 35 165 28.28 165 20" fill="none" stroke="#ffffff" stroke-width="10" stroke-miterlimit="10" pointer-events="all"/></g></g></g></g></g></svg>